%TF.GenerationSoftware,KiCad,Pcbnew,10.0.6*%
%TF.CreationDate,2026-10-09T15:35:35+02:00*%
%TF.ProjectId,Project,50726f6a-6563-4742-9e6b-696361645f70,rev?*%
%TF.SameCoordinates,Original*%
%TF.FileFunction,Profile,NP*%
%FSLAX46Y46*%
G04 Gerber Fmt 4.6, Leading zero omitted, Abs format (unit mm)*
G04 Created by KiCad (PCBNEW 10.0.6) date 2026-10-09 15:35:35*
%MOMM*%
%LPD*%
G01*
G04 APERTURE LIST*
%TA.AperFunction,Profile*%
%ADD10C,0.050000*%
%TD*%
G04 APERTURE END LIST*
D10*
X46250000Y-73500000D02*
X46250000Y-78500000D01*
X46250000Y-73500000D02*
X76250000Y-73500000D01*
X46250000Y-78500000D02*
X50750000Y-78500000D01*
X50750000Y-78500000D02*
X50750000Y-83500000D01*
X50750000Y-83500000D02*
X56750000Y-83500000D01*
X54750000Y-136000000D02*
X54750000Y-153000000D01*
X54750000Y-153000000D02*
X85250000Y-153000000D01*
X56750000Y-83500000D02*
X56750000Y-88500000D01*
X56750000Y-88500000D02*
X60750000Y-88500000D01*
X60750000Y-88500000D02*
X60750000Y-93000000D01*
X60750000Y-93000000D02*
X65750000Y-93000000D01*
X63750000Y-118500000D02*
X63750000Y-136000000D01*
X63750000Y-136000000D02*
X54750000Y-136000000D01*
X65750000Y-93000000D02*
X65750000Y-98000000D01*
X65750000Y-98000000D02*
X71250000Y-98000000D01*
X71250000Y-98000000D02*
X71250000Y-103000000D01*
X71250000Y-103000000D02*
X71250000Y-108500000D01*
X71250000Y-108500000D02*
X71250000Y-118500000D01*
X71250000Y-118500000D02*
X63750000Y-118500000D01*
X76250000Y-68500000D02*
X81250000Y-68500000D01*
X76250000Y-73500000D02*
X76250000Y-68500000D01*
X81250000Y-63500000D02*
X86250000Y-63500000D01*
X81250000Y-68500000D02*
X81250000Y-63500000D01*
X85250000Y-147500000D02*
X91250000Y-147500000D01*
X85250000Y-153000000D02*
X85250000Y-147500000D01*
X86250000Y-58500000D02*
X91250000Y-58500000D01*
X86250000Y-63500000D02*
X86250000Y-58500000D01*
X91250000Y-53500000D02*
X96250000Y-53500000D01*
X91250000Y-58500000D02*
X91250000Y-53500000D01*
X91250000Y-143500000D02*
X96750000Y-143500000D01*
X91250000Y-147500000D02*
X91250000Y-143500000D01*
X96250000Y-48000000D02*
X120000000Y-48000000D01*
X96250000Y-53500000D02*
X96250000Y-48000000D01*
X96750000Y-138500000D02*
X101750000Y-138500000D01*
X96750000Y-143500000D02*
X96750000Y-138500000D01*
X101750000Y-133000000D02*
X114500000Y-133000000D01*
X101750000Y-138500000D02*
X101750000Y-133000000D01*
X114500000Y-138500000D02*
X114500000Y-133000000D01*
X119500000Y-138500000D02*
X114500000Y-138500000D01*
X119500000Y-143500000D02*
X119500000Y-138500000D01*
X120000000Y-53500000D02*
X120000000Y-48000000D01*
X125000000Y-53500000D02*
X120000000Y-53500000D01*
X125000000Y-58500000D02*
X125000000Y-53500000D01*
X125000000Y-143500000D02*
X119500000Y-143500000D01*
X125000000Y-147500000D02*
X125000000Y-143500000D01*
X130000000Y-58500000D02*
X125000000Y-58500000D01*
X130000000Y-63500000D02*
X130000000Y-58500000D01*
X131000000Y-147500000D02*
X125000000Y-147500000D01*
X131000000Y-153000000D02*
X131000000Y-147500000D01*
X135000000Y-63500000D02*
X130000000Y-63500000D01*
X135000000Y-68500000D02*
X135000000Y-63500000D01*
X140000000Y-68500000D02*
X135000000Y-68500000D01*
X140000000Y-73500000D02*
X140000000Y-68500000D01*
X145000000Y-98000000D02*
X145000000Y-103000000D01*
X145000000Y-103000000D02*
X145000000Y-108500000D01*
X145000000Y-108500000D02*
X145000000Y-118500000D01*
X145000000Y-118500000D02*
X152500000Y-118500000D01*
X150500000Y-93000000D02*
X150500000Y-98000000D01*
X150500000Y-98000000D02*
X145000000Y-98000000D01*
X152500000Y-118500000D02*
X152500000Y-136000000D01*
X152500000Y-136000000D02*
X161500000Y-136000000D01*
X155500000Y-88500000D02*
X155500000Y-93000000D01*
X155500000Y-93000000D02*
X150500000Y-93000000D01*
X159500000Y-83500000D02*
X159500000Y-88500000D01*
X159500000Y-88500000D02*
X155500000Y-88500000D01*
X161500000Y-136000000D02*
X161500000Y-153000000D01*
X161500000Y-153000000D02*
X131000000Y-153000000D01*
X165500000Y-78500000D02*
X165500000Y-83500000D01*
X165500000Y-83500000D02*
X159500000Y-83500000D01*
X170000000Y-73500000D02*
X140000000Y-73500000D01*
X170000000Y-73500000D02*
X170000000Y-78500000D01*
X170000000Y-78500000D02*
X165500000Y-78500000D01*
M02*
