%TF.GenerationSoftware,KiCad,Pcbnew,10.0.6*%
%TF.CreationDate,2026-10-06T16:59:03+02:00*%
%TF.ProjectId,Project,50726f6a-6563-4742-9e6b-696361645f70,rev?*%
%TF.SameCoordinates,Original*%
%TF.FileFunction,Soldermask,Bot*%
%TF.FilePolarity,Negative*%
%FSLAX46Y46*%
G04 Gerber Fmt 4.6, Leading zero omitted, Abs format (unit mm)*
G04 Created by KiCad (PCBNEW 10.0.6) date 2026-10-06 16:59:03*
%MOMM*%
%LPD*%
G01*
G04 APERTURE LIST*
%ADD10C,1.700000*%
%ADD11C,4.000000*%
%ADD12C,2.200000*%
%ADD13C,1.400000*%
%ADD14R,1.500000X1.500000*%
%ADD15C,1.500000*%
%ADD16C,1.524000*%
%ADD17R,1.700000X1.700000*%
%ADD18O,3.800000X2.900000*%
%ADD19O,1.700000X1.700000*%
G04 APERTURE END LIST*
D10*
%TO.C,SW2*%
X79230000Y-114540000D03*
D11*
X84310000Y-114540000D03*
D10*
X89390000Y-114540000D03*
D12*
X86850000Y-109460000D03*
X80500000Y-112000000D03*
%TD*%
D10*
%TO.C,SW1*%
X75730000Y-84540000D03*
D11*
X80810000Y-84540000D03*
D10*
X85890000Y-84540000D03*
D12*
X83350000Y-79460000D03*
X77000000Y-82000000D03*
%TD*%
D13*
%TO.C,R1*%
X104000000Y-59000000D03*
X111620000Y-59000000D03*
%TD*%
D14*
%TO.C,U2*%
X111540000Y-66500000D03*
D15*
X109000000Y-66500000D03*
X106460000Y-66500000D03*
X103920000Y-66500000D03*
%TD*%
D16*
%TO.C,U1*%
X142000000Y-105260000D03*
X139460000Y-105260000D03*
X136920000Y-105260000D03*
X134380000Y-105260000D03*
X131840000Y-105260000D03*
X129300000Y-105260000D03*
X126760000Y-105260000D03*
X126760000Y-120500000D03*
X129300000Y-120500000D03*
X131840000Y-120500000D03*
X134380000Y-120500000D03*
X136920000Y-120500000D03*
X139460000Y-120500000D03*
X142000000Y-120500000D03*
%TD*%
D17*
%TO.C,J2*%
X132000000Y-76000000D03*
D10*
X132000000Y-78540000D03*
X132000000Y-81080000D03*
X132000000Y-83620000D03*
X132000000Y-86160000D03*
X132000000Y-88700000D03*
X132000000Y-91240000D03*
X132000000Y-93780000D03*
%TD*%
D18*
%TO.C,J1*%
X97014000Y-77000000D03*
X97014000Y-100114000D03*
X119366000Y-77000000D03*
X119366000Y-100114000D03*
D17*
X104380000Y-76365000D03*
D19*
X106920000Y-76365000D03*
X109460000Y-76365000D03*
X112000000Y-76365000D03*
%TD*%
M02*
