M48
; DRILL file KiCad 10.0.6 date 2026-10-06T16:59:08
; FORMAT={-:-/ absolute / metric / decimal}
; #@! TF.CreationDate,2026-10-06T16:59:08+02:00
; #@! TF.GenerationSoftware,Kicad,Pcbnew,10.0.6
; #@! TF.FileFunction,Plated,1,2,PTH
FMAT,2
METRIC
; #@! TA.AperFunction,Plated,PTH,ComponentDrill
T1C0.700
; #@! TA.AperFunction,Plated,PTH,ComponentDrill
T2C0.800
; #@! TA.AperFunction,Plated,PTH,ComponentDrill
T3C0.889
; #@! TA.AperFunction,Plated,PTH,ComponentDrill
T4C1.000
; #@! TA.AperFunction,Plated,PTH,ComponentDrill
T5C1.500
%
G90
G05
T1
X104.0Y-59.0
X111.62Y-59.0
T2
X103.92Y-66.5
X106.46Y-66.5
X109.0Y-66.5
X111.54Y-66.5
T3
X126.76Y-105.26
X126.76Y-120.5
X129.3Y-105.26
X129.3Y-120.5
X131.84Y-105.26
X131.84Y-120.5
X134.38Y-105.26
X134.38Y-120.5
X136.92Y-105.26
X136.92Y-120.5
X139.46Y-105.26
X139.46Y-120.5
X142.0Y-105.26
X142.0Y-120.5
T4
X104.38Y-76.365
X106.92Y-76.365
X109.46Y-76.365
X112.0Y-76.365
X132.0Y-76.0
X132.0Y-78.54
X132.0Y-81.08
X132.0Y-83.62
X132.0Y-86.16
X132.0Y-88.7
X132.0Y-91.24
X132.0Y-93.78
T5
X77.0Y-82.0
X80.5Y-112.0
X83.35Y-79.46
X86.85Y-109.46
M30
