%TF.GenerationSoftware,KiCad,Pcbnew,10.0.6*%
%TF.CreationDate,2026-10-06T16:59:03+02:00*%
%TF.ProjectId,Project,50726f6a-6563-4742-9e6b-696361645f70,rev?*%
%TF.SameCoordinates,Original*%
%TF.FileFunction,Legend,Top*%
%TF.FilePolarity,Positive*%
%FSLAX46Y46*%
G04 Gerber Fmt 4.6, Leading zero omitted, Abs format (unit mm)*
G04 Created by KiCad (PCBNEW 10.0.6) date 2026-10-06 16:59:03*
%MOMM*%
%LPD*%
G01*
G04 APERTURE LIST*
%ADD10C,0.150000*%
%ADD11C,0.101600*%
%ADD12C,0.120000*%
%ADD13C,0.127000*%
%ADD14C,0.100000*%
%ADD15C,0.504000*%
G04 APERTURE END LIST*
D10*
X82976667Y-107073200D02*
X83119524Y-107120819D01*
X83119524Y-107120819D02*
X83357619Y-107120819D01*
X83357619Y-107120819D02*
X83452857Y-107073200D01*
X83452857Y-107073200D02*
X83500476Y-107025580D01*
X83500476Y-107025580D02*
X83548095Y-106930342D01*
X83548095Y-106930342D02*
X83548095Y-106835104D01*
X83548095Y-106835104D02*
X83500476Y-106739866D01*
X83500476Y-106739866D02*
X83452857Y-106692247D01*
X83452857Y-106692247D02*
X83357619Y-106644628D01*
X83357619Y-106644628D02*
X83167143Y-106597009D01*
X83167143Y-106597009D02*
X83071905Y-106549390D01*
X83071905Y-106549390D02*
X83024286Y-106501771D01*
X83024286Y-106501771D02*
X82976667Y-106406533D01*
X82976667Y-106406533D02*
X82976667Y-106311295D01*
X82976667Y-106311295D02*
X83024286Y-106216057D01*
X83024286Y-106216057D02*
X83071905Y-106168438D01*
X83071905Y-106168438D02*
X83167143Y-106120819D01*
X83167143Y-106120819D02*
X83405238Y-106120819D01*
X83405238Y-106120819D02*
X83548095Y-106168438D01*
X83881429Y-106120819D02*
X84119524Y-107120819D01*
X84119524Y-107120819D02*
X84310000Y-106406533D01*
X84310000Y-106406533D02*
X84500476Y-107120819D01*
X84500476Y-107120819D02*
X84738572Y-106120819D01*
X85071905Y-106216057D02*
X85119524Y-106168438D01*
X85119524Y-106168438D02*
X85214762Y-106120819D01*
X85214762Y-106120819D02*
X85452857Y-106120819D01*
X85452857Y-106120819D02*
X85548095Y-106168438D01*
X85548095Y-106168438D02*
X85595714Y-106216057D01*
X85595714Y-106216057D02*
X85643333Y-106311295D01*
X85643333Y-106311295D02*
X85643333Y-106406533D01*
X85643333Y-106406533D02*
X85595714Y-106549390D01*
X85595714Y-106549390D02*
X85024286Y-107120819D01*
X85024286Y-107120819D02*
X85643333Y-107120819D01*
X79476667Y-77073200D02*
X79619524Y-77120819D01*
X79619524Y-77120819D02*
X79857619Y-77120819D01*
X79857619Y-77120819D02*
X79952857Y-77073200D01*
X79952857Y-77073200D02*
X80000476Y-77025580D01*
X80000476Y-77025580D02*
X80048095Y-76930342D01*
X80048095Y-76930342D02*
X80048095Y-76835104D01*
X80048095Y-76835104D02*
X80000476Y-76739866D01*
X80000476Y-76739866D02*
X79952857Y-76692247D01*
X79952857Y-76692247D02*
X79857619Y-76644628D01*
X79857619Y-76644628D02*
X79667143Y-76597009D01*
X79667143Y-76597009D02*
X79571905Y-76549390D01*
X79571905Y-76549390D02*
X79524286Y-76501771D01*
X79524286Y-76501771D02*
X79476667Y-76406533D01*
X79476667Y-76406533D02*
X79476667Y-76311295D01*
X79476667Y-76311295D02*
X79524286Y-76216057D01*
X79524286Y-76216057D02*
X79571905Y-76168438D01*
X79571905Y-76168438D02*
X79667143Y-76120819D01*
X79667143Y-76120819D02*
X79905238Y-76120819D01*
X79905238Y-76120819D02*
X80048095Y-76168438D01*
X80381429Y-76120819D02*
X80619524Y-77120819D01*
X80619524Y-77120819D02*
X80810000Y-76406533D01*
X80810000Y-76406533D02*
X81000476Y-77120819D01*
X81000476Y-77120819D02*
X81238572Y-76120819D01*
X82143333Y-77120819D02*
X81571905Y-77120819D01*
X81857619Y-77120819D02*
X81857619Y-76120819D01*
X81857619Y-76120819D02*
X81762381Y-76263676D01*
X81762381Y-76263676D02*
X81667143Y-76358914D01*
X81667143Y-76358914D02*
X81571905Y-76406533D01*
X107643333Y-57534819D02*
X107310000Y-57058628D01*
X107071905Y-57534819D02*
X107071905Y-56534819D01*
X107071905Y-56534819D02*
X107452857Y-56534819D01*
X107452857Y-56534819D02*
X107548095Y-56582438D01*
X107548095Y-56582438D02*
X107595714Y-56630057D01*
X107595714Y-56630057D02*
X107643333Y-56725295D01*
X107643333Y-56725295D02*
X107643333Y-56868152D01*
X107643333Y-56868152D02*
X107595714Y-56963390D01*
X107595714Y-56963390D02*
X107548095Y-57011009D01*
X107548095Y-57011009D02*
X107452857Y-57058628D01*
X107452857Y-57058628D02*
X107071905Y-57058628D01*
X108595714Y-57534819D02*
X108024286Y-57534819D01*
X108310000Y-57534819D02*
X108310000Y-56534819D01*
X108310000Y-56534819D02*
X108214762Y-56677676D01*
X108214762Y-56677676D02*
X108119524Y-56772914D01*
X108119524Y-56772914D02*
X108024286Y-56820533D01*
X114494819Y-66261904D02*
X115304342Y-66261904D01*
X115304342Y-66261904D02*
X115399580Y-66214285D01*
X115399580Y-66214285D02*
X115447200Y-66166666D01*
X115447200Y-66166666D02*
X115494819Y-66071428D01*
X115494819Y-66071428D02*
X115494819Y-65880952D01*
X115494819Y-65880952D02*
X115447200Y-65785714D01*
X115447200Y-65785714D02*
X115399580Y-65738095D01*
X115399580Y-65738095D02*
X115304342Y-65690476D01*
X115304342Y-65690476D02*
X114494819Y-65690476D01*
X114590057Y-65261904D02*
X114542438Y-65214285D01*
X114542438Y-65214285D02*
X114494819Y-65119047D01*
X114494819Y-65119047D02*
X114494819Y-64880952D01*
X114494819Y-64880952D02*
X114542438Y-64785714D01*
X114542438Y-64785714D02*
X114590057Y-64738095D01*
X114590057Y-64738095D02*
X114685295Y-64690476D01*
X114685295Y-64690476D02*
X114780533Y-64690476D01*
X114780533Y-64690476D02*
X114923390Y-64738095D01*
X114923390Y-64738095D02*
X115494819Y-65309523D01*
X115494819Y-65309523D02*
X115494819Y-64690476D01*
D11*
X133771190Y-102283479D02*
X133771190Y-102797526D01*
X133771190Y-102797526D02*
X133801428Y-102858002D01*
X133801428Y-102858002D02*
X133831666Y-102888241D01*
X133831666Y-102888241D02*
X133892142Y-102918479D01*
X133892142Y-102918479D02*
X134013095Y-102918479D01*
X134013095Y-102918479D02*
X134073571Y-102888241D01*
X134073571Y-102888241D02*
X134103809Y-102858002D01*
X134103809Y-102858002D02*
X134134047Y-102797526D01*
X134134047Y-102797526D02*
X134134047Y-102283479D01*
X134769047Y-102918479D02*
X134406190Y-102918479D01*
X134587618Y-102918479D02*
X134587618Y-102283479D01*
X134587618Y-102283479D02*
X134527142Y-102374193D01*
X134527142Y-102374193D02*
X134466666Y-102434669D01*
X134466666Y-102434669D02*
X134406190Y-102464907D01*
D10*
X131666666Y-73074819D02*
X131666666Y-73789104D01*
X131666666Y-73789104D02*
X131619047Y-73931961D01*
X131619047Y-73931961D02*
X131523809Y-74027200D01*
X131523809Y-74027200D02*
X131380952Y-74074819D01*
X131380952Y-74074819D02*
X131285714Y-74074819D01*
X132095238Y-73170057D02*
X132142857Y-73122438D01*
X132142857Y-73122438D02*
X132238095Y-73074819D01*
X132238095Y-73074819D02*
X132476190Y-73074819D01*
X132476190Y-73074819D02*
X132571428Y-73122438D01*
X132571428Y-73122438D02*
X132619047Y-73170057D01*
X132619047Y-73170057D02*
X132666666Y-73265295D01*
X132666666Y-73265295D02*
X132666666Y-73360533D01*
X132666666Y-73360533D02*
X132619047Y-73503390D01*
X132619047Y-73503390D02*
X132047619Y-74074819D01*
X132047619Y-74074819D02*
X132666666Y-74074819D01*
X107628066Y-86691019D02*
X107628066Y-87405304D01*
X107628066Y-87405304D02*
X107580447Y-87548161D01*
X107580447Y-87548161D02*
X107485209Y-87643400D01*
X107485209Y-87643400D02*
X107342352Y-87691019D01*
X107342352Y-87691019D02*
X107247114Y-87691019D01*
X108628066Y-87691019D02*
X108056638Y-87691019D01*
X108342352Y-87691019D02*
X108342352Y-86691019D01*
X108342352Y-86691019D02*
X108247114Y-86833876D01*
X108247114Y-86833876D02*
X108151876Y-86929114D01*
X108151876Y-86929114D02*
X108056638Y-86976733D01*
X103846667Y-78026438D02*
X103780000Y-77978819D01*
X103780000Y-77978819D02*
X103680000Y-77978819D01*
X103680000Y-77978819D02*
X103580000Y-78026438D01*
X103580000Y-78026438D02*
X103513334Y-78121676D01*
X103513334Y-78121676D02*
X103480000Y-78216914D01*
X103480000Y-78216914D02*
X103446667Y-78407390D01*
X103446667Y-78407390D02*
X103446667Y-78550247D01*
X103446667Y-78550247D02*
X103480000Y-78740723D01*
X103480000Y-78740723D02*
X103513334Y-78835961D01*
X103513334Y-78835961D02*
X103580000Y-78931200D01*
X103580000Y-78931200D02*
X103680000Y-78978819D01*
X103680000Y-78978819D02*
X103746667Y-78978819D01*
X103746667Y-78978819D02*
X103846667Y-78931200D01*
X103846667Y-78931200D02*
X103880000Y-78883580D01*
X103880000Y-78883580D02*
X103880000Y-78550247D01*
X103880000Y-78550247D02*
X103746667Y-78550247D01*
X104180000Y-78978819D02*
X104180000Y-77978819D01*
X104180000Y-77978819D02*
X104580000Y-78978819D01*
X104580000Y-78978819D02*
X104580000Y-77978819D01*
X104913333Y-78978819D02*
X104913333Y-77978819D01*
X104913333Y-77978819D02*
X105080000Y-77978819D01*
X105080000Y-77978819D02*
X105180000Y-78026438D01*
X105180000Y-78026438D02*
X105246667Y-78121676D01*
X105246667Y-78121676D02*
X105280000Y-78216914D01*
X105280000Y-78216914D02*
X105313333Y-78407390D01*
X105313333Y-78407390D02*
X105313333Y-78550247D01*
X105313333Y-78550247D02*
X105280000Y-78740723D01*
X105280000Y-78740723D02*
X105246667Y-78835961D01*
X105246667Y-78835961D02*
X105180000Y-78931200D01*
X105180000Y-78931200D02*
X105080000Y-78978819D01*
X105080000Y-78978819D02*
X104913333Y-78978819D01*
X105986666Y-77978819D02*
X106220000Y-78978819D01*
X106220000Y-78978819D02*
X106453333Y-77978819D01*
X106686666Y-78978819D02*
X106686666Y-77978819D01*
X106686666Y-77978819D02*
X106853333Y-77978819D01*
X106853333Y-77978819D02*
X106953333Y-78026438D01*
X106953333Y-78026438D02*
X107020000Y-78121676D01*
X107020000Y-78121676D02*
X107053333Y-78216914D01*
X107053333Y-78216914D02*
X107086666Y-78407390D01*
X107086666Y-78407390D02*
X107086666Y-78550247D01*
X107086666Y-78550247D02*
X107053333Y-78740723D01*
X107053333Y-78740723D02*
X107020000Y-78835961D01*
X107020000Y-78835961D02*
X106953333Y-78931200D01*
X106953333Y-78931200D02*
X106853333Y-78978819D01*
X106853333Y-78978819D02*
X106686666Y-78978819D01*
X107386666Y-78978819D02*
X107386666Y-77978819D01*
X107386666Y-77978819D02*
X107553333Y-77978819D01*
X107553333Y-77978819D02*
X107653333Y-78026438D01*
X107653333Y-78026438D02*
X107720000Y-78121676D01*
X107720000Y-78121676D02*
X107753333Y-78216914D01*
X107753333Y-78216914D02*
X107786666Y-78407390D01*
X107786666Y-78407390D02*
X107786666Y-78550247D01*
X107786666Y-78550247D02*
X107753333Y-78740723D01*
X107753333Y-78740723D02*
X107720000Y-78835961D01*
X107720000Y-78835961D02*
X107653333Y-78931200D01*
X107653333Y-78931200D02*
X107553333Y-78978819D01*
X107553333Y-78978819D02*
X107386666Y-78978819D01*
X108626666Y-78931200D02*
X108726666Y-78978819D01*
X108726666Y-78978819D02*
X108893333Y-78978819D01*
X108893333Y-78978819D02*
X108959999Y-78931200D01*
X108959999Y-78931200D02*
X108993333Y-78883580D01*
X108993333Y-78883580D02*
X109026666Y-78788342D01*
X109026666Y-78788342D02*
X109026666Y-78693104D01*
X109026666Y-78693104D02*
X108993333Y-78597866D01*
X108993333Y-78597866D02*
X108959999Y-78550247D01*
X108959999Y-78550247D02*
X108893333Y-78502628D01*
X108893333Y-78502628D02*
X108759999Y-78455009D01*
X108759999Y-78455009D02*
X108693333Y-78407390D01*
X108693333Y-78407390D02*
X108659999Y-78359771D01*
X108659999Y-78359771D02*
X108626666Y-78264533D01*
X108626666Y-78264533D02*
X108626666Y-78169295D01*
X108626666Y-78169295D02*
X108659999Y-78074057D01*
X108659999Y-78074057D02*
X108693333Y-78026438D01*
X108693333Y-78026438D02*
X108759999Y-77978819D01*
X108759999Y-77978819D02*
X108926666Y-77978819D01*
X108926666Y-77978819D02*
X109026666Y-78026438D01*
X109726666Y-78883580D02*
X109693333Y-78931200D01*
X109693333Y-78931200D02*
X109593333Y-78978819D01*
X109593333Y-78978819D02*
X109526666Y-78978819D01*
X109526666Y-78978819D02*
X109426666Y-78931200D01*
X109426666Y-78931200D02*
X109360000Y-78835961D01*
X109360000Y-78835961D02*
X109326666Y-78740723D01*
X109326666Y-78740723D02*
X109293333Y-78550247D01*
X109293333Y-78550247D02*
X109293333Y-78407390D01*
X109293333Y-78407390D02*
X109326666Y-78216914D01*
X109326666Y-78216914D02*
X109360000Y-78121676D01*
X109360000Y-78121676D02*
X109426666Y-78026438D01*
X109426666Y-78026438D02*
X109526666Y-77978819D01*
X109526666Y-77978819D02*
X109593333Y-77978819D01*
X109593333Y-77978819D02*
X109693333Y-78026438D01*
X109693333Y-78026438D02*
X109726666Y-78074057D01*
X110360000Y-78978819D02*
X110026666Y-78978819D01*
X110026666Y-78978819D02*
X110026666Y-77978819D01*
X111277000Y-78931200D02*
X111377000Y-78978819D01*
X111377000Y-78978819D02*
X111543667Y-78978819D01*
X111543667Y-78978819D02*
X111610333Y-78931200D01*
X111610333Y-78931200D02*
X111643667Y-78883580D01*
X111643667Y-78883580D02*
X111677000Y-78788342D01*
X111677000Y-78788342D02*
X111677000Y-78693104D01*
X111677000Y-78693104D02*
X111643667Y-78597866D01*
X111643667Y-78597866D02*
X111610333Y-78550247D01*
X111610333Y-78550247D02*
X111543667Y-78502628D01*
X111543667Y-78502628D02*
X111410333Y-78455009D01*
X111410333Y-78455009D02*
X111343667Y-78407390D01*
X111343667Y-78407390D02*
X111310333Y-78359771D01*
X111310333Y-78359771D02*
X111277000Y-78264533D01*
X111277000Y-78264533D02*
X111277000Y-78169295D01*
X111277000Y-78169295D02*
X111310333Y-78074057D01*
X111310333Y-78074057D02*
X111343667Y-78026438D01*
X111343667Y-78026438D02*
X111410333Y-77978819D01*
X111410333Y-77978819D02*
X111577000Y-77978819D01*
X111577000Y-77978819D02*
X111677000Y-78026438D01*
X111977000Y-78978819D02*
X111977000Y-77978819D01*
X111977000Y-77978819D02*
X112143667Y-77978819D01*
X112143667Y-77978819D02*
X112243667Y-78026438D01*
X112243667Y-78026438D02*
X112310334Y-78121676D01*
X112310334Y-78121676D02*
X112343667Y-78216914D01*
X112343667Y-78216914D02*
X112377000Y-78407390D01*
X112377000Y-78407390D02*
X112377000Y-78550247D01*
X112377000Y-78550247D02*
X112343667Y-78740723D01*
X112343667Y-78740723D02*
X112310334Y-78835961D01*
X112310334Y-78835961D02*
X112243667Y-78931200D01*
X112243667Y-78931200D02*
X112143667Y-78978819D01*
X112143667Y-78978819D02*
X111977000Y-78978819D01*
X112643667Y-78693104D02*
X112977000Y-78693104D01*
X112577000Y-78978819D02*
X112810334Y-77978819D01*
X112810334Y-77978819D02*
X113043667Y-78978819D01*
%TO.C,SW2*%
D12*
X77325000Y-107555000D02*
X91295000Y-107555000D01*
X77325000Y-121525000D02*
X77325000Y-107555000D01*
X91295000Y-107555000D02*
X91295000Y-121525000D01*
X91295000Y-121525000D02*
X77325000Y-121525000D01*
%TO.C,SW1*%
X73825000Y-77555000D02*
X87795000Y-77555000D01*
X73825000Y-91525000D02*
X73825000Y-77555000D01*
X87795000Y-77555000D02*
X87795000Y-91525000D01*
X87795000Y-91525000D02*
X73825000Y-91525000D01*
%TO.C,R1*%
X104940000Y-59000000D02*
X105890000Y-59000000D01*
X110680000Y-59000000D02*
X109730000Y-59000000D01*
X105890000Y-58080000D02*
X109730000Y-58080000D01*
X109730000Y-59920000D01*
X105890000Y-59920000D01*
X105890000Y-58080000D01*
%TO.C,U2*%
X101600000Y-63620000D02*
X113850000Y-63620000D01*
X101600000Y-69380000D02*
X101600000Y-63620000D01*
X113860000Y-63630000D02*
X113860000Y-69370000D01*
X113860000Y-69380000D02*
X101600000Y-69380000D01*
X114140000Y-63340000D02*
X112140000Y-63340000D01*
X114140000Y-63340000D02*
X114140000Y-64950000D01*
%TO.C,U1*%
D13*
X123966000Y-105895000D02*
X123966000Y-119865000D01*
X125871000Y-103990000D02*
X143016000Y-103990000D01*
X125871000Y-121770000D02*
X143016000Y-121770000D01*
X144921000Y-108385000D02*
X145931272Y-108388728D01*
D14*
X144921000Y-119865000D02*
X144921000Y-105895000D01*
D13*
X144921000Y-119865000D02*
X144921000Y-105895000D01*
X145931000Y-117384000D02*
X144921000Y-117384000D01*
X146431000Y-108888728D02*
X146431000Y-116884000D01*
X123966000Y-105895000D02*
G75*
G02*
X125871000Y-103990000I1905001J-1D01*
G01*
X125871000Y-121770000D02*
G75*
G02*
X123966000Y-119865000I1J1905001D01*
G01*
X143016000Y-103990000D02*
G75*
G02*
X144921000Y-105895000I0J-1905000D01*
G01*
X144921000Y-119865000D02*
G75*
G02*
X143016000Y-121770000I-1905000J0D01*
G01*
X145931272Y-108388728D02*
G75*
G02*
X146430972Y-108888728I-272J-499972D01*
G01*
X146431000Y-116884000D02*
G75*
G02*
X145931000Y-117384000I-500000J0D01*
G01*
D15*
X144052000Y-105073000D02*
G75*
G02*
X143548000Y-105073000I-252000J0D01*
G01*
X143548000Y-105073000D02*
G75*
G02*
X144052000Y-105073000I252000J0D01*
G01*
X144932000Y-103930000D02*
G75*
G02*
X144428000Y-103930000I-252000J0D01*
G01*
X144428000Y-103930000D02*
G75*
G02*
X144932000Y-103930000I252000J0D01*
G01*
%TO.C,J2*%
D12*
X130620000Y-74620000D02*
X132000000Y-74620000D01*
X130620000Y-76000000D02*
X130620000Y-74620000D01*
X130620000Y-77270000D02*
X130620000Y-95160000D01*
X130620000Y-77270000D02*
X133380000Y-77270000D01*
X130620000Y-95160000D02*
X133380000Y-95160000D01*
X133380000Y-77270000D02*
X133380000Y-95160000D01*
%TO.C,J1*%
X94474000Y-74968000D02*
X121906000Y-74968000D01*
X94474000Y-80175000D02*
X121906000Y-80175000D01*
X94474000Y-97066000D02*
X121906000Y-97066000D01*
X94474000Y-102146000D02*
X94601000Y-74968000D01*
X103050000Y-77695000D02*
X103050000Y-76365000D01*
X104380000Y-77695000D02*
X103050000Y-77695000D01*
X105650000Y-75035000D02*
X113330000Y-75035000D01*
X105650000Y-77695000D02*
X105650000Y-75035000D01*
X105650000Y-77695000D02*
X113330000Y-77695000D01*
X113330000Y-77695000D02*
X113330000Y-75035000D01*
X121906000Y-102146000D02*
X94474000Y-102146000D01*
X121906000Y-102146000D02*
X121906000Y-74968000D01*
%TD*%
M02*
